<svg viewBox="0 0 100 100" fill="black" xmlns="http://www.w3.org/2000/svg">
<path d="M84.375 12.5V75C84.375 75.8288 84.0458 76.6237 83.4597 77.2097C82.8737 77.7958 82.0788 78.125 81.25 78.125H28.125C26.4674 78.125 24.8777 78.7835 23.7056 79.9556C22.5335 81.1277 21.875 82.7174 21.875 84.375H75C75.8288 84.375 76.6237 84.7042 77.2097 85.2903C77.7958 85.8763 78.125 86.6712 78.125 87.5C78.125 88.3288 77.7958 89.1237 77.2097 89.7097C76.6237 90.2958 75.8288 90.625 75 90.625H18.75C17.9212 90.625 17.1263 90.2958 16.5403 89.7097C15.9542 89.1237 15.625 88.3288 15.625 87.5V21.875C15.6353 18.563 16.9556 15.3895 19.2975 13.0475C21.6395 10.7056 24.813 9.3853 28.125 9.375H81.25C82.0788 9.375 82.8737 9.70424 83.4597 10.2903C84.0458 10.8763 84.375 11.6712 84.375 12.5Z"/>
</svg>
