<svg viewBox="0 0 100 100" fill="none" xmlns="http://www.w3.org/2000/svg">
<path d="M29.7917 87.9167C28.7501 86.8751 28.2292 85.6417 28.2292 84.2167C28.2292 82.7945 28.7501 81.5626 29.7917 80.5209L60.3126 50.0001L29.6876 19.3751C28.7154 18.4029 28.2292 17.1876 28.2292 15.7292C28.2292 14.2709 28.7501 13.0209 29.7917 11.9792C30.8334 10.9376 32.0667 10.4167 33.4917 10.4167C34.914 10.4167 36.1459 10.9376 37.1876 11.9792L72.1876 47.0834C72.6043 47.5001 72.9001 47.9515 73.0751 48.4376C73.2473 48.9237 73.3334 49.4445 73.3334 50.0001C73.3334 50.5556 73.2473 51.0765 73.0751 51.5626C72.9001 52.0487 72.6043 52.5001 72.1876 52.9167L37.0834 88.0209C36.1112 88.9931 34.914 89.4792 33.4917 89.4792C32.0667 89.4792 30.8334 88.9584 29.7917 87.9167Z" fill="black"/>
</svg>
