<svg viewBox="0 0 100 100" fill="black" xmlns="http://www.w3.org/2000/svg">
<path d="M63.0207 87.9166L27.9166 52.9166C27.4999 52.4999 27.2055 52.0485 27.0333 51.5624C26.8583 51.0763 26.7708 50.5555 26.7708 49.9999C26.7708 49.4444 26.8583 48.9235 27.0333 48.4374C27.2055 47.9513 27.4999 47.4999 27.9166 47.0832L63.0207 11.9791C63.993 11.0069 65.2082 10.5208 66.6666 10.5208C68.1249 10.5208 69.3749 11.0416 70.4166 12.0833C71.4582 13.1249 71.9791 14.3402 71.9791 15.7291C71.9791 17.118 71.4582 18.3333 70.4166 19.3749L39.7916 49.9999L70.4166 80.6249C71.3888 81.5971 71.8749 82.7944 71.8749 84.2166C71.8749 85.6416 71.3541 86.8749 70.3124 87.9166C69.2707 88.9583 68.0555 89.4791 66.6666 89.4791C65.2777 89.4791 64.0624 88.9583 63.0207 87.9166Z" />
</svg>
