<svg viewBox="0 0 100 100" fill="black" xmlns="http://www.w3.org/2000/svg">
<path d="M81.2501 49.9999C81.2501 49.0416 81.2084 48.1249 81.1251 47.1666L88.8751 41.2916C90.5417 40.0416 91.0001 37.7083 89.9584 35.8749L82.1667 22.4166C81.6671 21.534 80.859 20.8672 79.8977 20.5442C78.9364 20.2212 77.8895 20.2648 76.9584 20.6666L68.0001 24.4583C66.4584 23.3749 64.8334 22.4166 63.1251 21.6249L61.9167 11.9999C61.6667 9.91659 59.8751 8.33325 57.7917 8.33325H42.2501C40.1251 8.33325 38.3334 9.91659 38.0834 11.9999L36.8751 21.6249C35.1667 22.4166 33.5417 23.3749 32.0001 24.4583L23.0417 20.6666C21.1251 19.8333 18.8751 20.5833 17.8334 22.4166L10.0417 35.9166C9.00007 37.7499 9.4584 40.0416 11.1251 41.3333L18.8751 47.2083C18.7023 49.0793 18.7023 50.9622 18.8751 52.8333L11.1251 58.7083C9.4584 59.9583 9.00007 62.2916 10.0417 64.1249L17.8334 77.5833C18.8751 79.4166 21.1251 80.1666 23.0417 79.3333L32.0001 75.5416C33.5417 76.6249 35.1667 77.5832 36.8751 78.3749L38.0834 87.9999C38.3334 90.0833 40.1251 91.6666 42.2084 91.6666H57.7501C59.8334 91.6666 61.6251 90.0833 61.8751 87.9999L63.0834 78.3749C64.7917 77.5832 66.4167 76.6249 67.9584 75.5416L76.9167 79.3333C78.8334 80.1666 81.0834 79.4166 82.1251 77.5833L89.9167 64.1249C90.9584 62.2916 90.5001 59.9999 88.8334 58.7083L81.0834 52.8333C81.2084 51.8749 81.2501 50.9583 81.2501 49.9999ZM50.1667 64.5832C42.1251 64.5832 35.5834 58.0416 35.5834 49.9999C35.5834 41.9583 42.1251 35.4166 50.1667 35.4166C58.2084 35.4166 64.7501 41.9583 64.7501 49.9999C64.7501 58.0416 58.2084 64.5832 50.1667 64.5832Z" />
</svg>
