<svg viewBox="0 0 100 100" fill="black" xmlns="http://www.w3.org/2000/svg">
<path d="M49.9999 76.1458L32.7083 86.5625C31.9444 87.0486 31.1458 87.2569 30.3124 87.1875C29.4791 87.118 28.7499 86.8403 28.1249 86.3542C27.4999 85.8681 27.0138 85.2611 26.6666 84.5333C26.3194 83.8028 26.2499 82.9861 26.4583 82.0833L31.0416 62.3958L15.7291 49.1667C15.0346 48.5417 14.6013 47.8292 14.4291 47.0292C14.2541 46.2319 14.3055 45.4514 14.5833 44.6875C14.861 43.9236 15.2777 43.2986 15.8333 42.8125C16.3888 42.3264 17.1527 42.0139 18.1249 41.875L38.3333 40.1042L46.1458 21.5625C46.493 20.7292 47.0319 20.1042 47.7624 19.6875C48.4902 19.2708 49.236 19.0625 49.9999 19.0625C50.7638 19.0625 51.511 19.2708 52.2416 19.6875C52.9694 20.1042 53.5069 20.7292 53.8541 21.5625L61.6666 40.1042L81.8749 41.875C82.8471 42.0139 83.611 42.3264 84.1666 42.8125C84.7222 43.2986 85.1388 43.9236 85.4166 44.6875C85.6944 45.4514 85.7471 46.2319 85.5749 47.0292C85.3999 47.8292 84.9652 48.5417 84.2708 49.1667L68.9583 62.3958L73.5416 82.0833C73.7499 82.9861 73.6805 83.8028 73.3333 84.5333C72.986 85.2611 72.4999 85.8681 71.8749 86.3542C71.2499 86.8403 70.5208 87.118 69.6874 87.1875C68.8541 87.2569 68.0555 87.0486 67.2916 86.5625L49.9999 76.1458Z" />
</svg>
