<svg  viewBox="0 0 100 100" fill="black" xmlns="http://www.w3.org/2000/svg">
<path d="M16.6667 58.3333H25C27.2917 58.3333 29.1667 56.4583 29.1667 54.1666V45.8333C29.1667 43.5416 27.2917 41.6666 25 41.6666H16.6667C14.375 41.6666 12.5 43.5416 12.5 45.8333V54.1666C12.5 56.4583 14.375 58.3333 16.6667 58.3333ZM16.6667 79.1666H25C27.2917 79.1666 29.1667 77.2916 29.1667 74.9999V66.6666C29.1667 64.3749 27.2917 62.4999 25 62.4999H16.6667C14.375 62.4999 12.5 64.3749 12.5 66.6666V74.9999C12.5 77.2916 14.375 79.1666 16.6667 79.1666ZM16.6667 37.4999H25C27.2917 37.4999 29.1667 35.6249 29.1667 33.3333V24.9999C29.1667 22.7083 27.2917 20.8333 25 20.8333H16.6667C14.375 20.8333 12.5 22.7083 12.5 24.9999V33.3333C12.5 35.6249 14.375 37.4999 16.6667 37.4999ZM37.5 58.3333H83.3333C85.625 58.3333 87.5 56.4583 87.5 54.1666V45.8333C87.5 43.5416 85.625 41.6666 83.3333 41.6666H37.5C35.2083 41.6666 33.3333 43.5416 33.3333 45.8333V54.1666C33.3333 56.4583 35.2083 58.3333 37.5 58.3333ZM37.5 79.1666H83.3333C85.625 79.1666 87.5 77.2916 87.5 74.9999V66.6666C87.5 64.3749 85.625 62.4999 83.3333 62.4999H37.5C35.2083 62.4999 33.3333 64.3749 33.3333 66.6666V74.9999C33.3333 77.2916 35.2083 79.1666 37.5 79.1666ZM33.3333 24.9999V33.3333C33.3333 35.6249 35.2083 37.4999 37.5 37.4999H83.3333C85.625 37.4999 87.5 35.6249 87.5 33.3333V24.9999C87.5 22.7083 85.625 20.8333 83.3333 20.8333H37.5C35.2083 20.8333 33.3333 22.7083 33.3333 24.9999Z" />
</svg>
